PathFileType	4	(X/Y/Z)	C:\Users\WrightLab\Desktop\Jo\P2_Trial11.trc
DataRate	CameraRate	NumFrames	NumMarkers	Units	OrigDataRate	OrigDataStartFrame	OrigNumFrames
100.00	100.00	      29	19	mm	100.00	1018	      1163
Frame#	Time	Headset_Front			Headset_Back			Headset_Left			Headset_Right			Left_Shoulder			Right_Shoulder			Sternum			C7			Left Elbow			Right Elbow			Left Wrist			Right Wrist			Left ASIS			Right ASIS			S2			Left Knee			Right Knee			Left Ankle			Right Ankle			
		X1	Y1	Z1	X2	Y2	Z2	X3	Y3	Z3	X4	Y4	Z4	X5	Y5	Z5	X6	Y6	Z6	X7	Y7	Z7	X8	Y8	Z8	X9	Y9	Z9	X10	Y10	Z10	X11	Y11	Z11	X12	Y12	Z12	X13	Y13	Z13	X14	Y14	Z14	X15	Y15	Z15	X16	Y16	Z16	X17	Y17	Z17	X18	Y18	Z18	X19	Y19	Z19	

1018	10.170										-881.47174	1418.20508	-1006.37360	-962.37006	1424.08374	-1199.20679										-704.34436	1011.57611	-1113.29346	-637.32385	1102.90979	-890.43292				-576.37842	856.22070	-879.70935							-914.39087	929.60077	-942.32745				-632.99518	540.18628	-1044.58557				-632.16913	106.14984	-1128.56445	
1019	10.180										-877.69061	1416.88025	-1012.09912	-957.32629	1423.18494	-1205.93445										-699.81854	1010.43481	-1117.75623	-637.09357	1102.07874	-893.52551				-576.91736	854.72589	-880.74030							-913.21222	928.79681	-949.07947				-632.88184	533.94177	-1043.01721				-615.77057	108.42244	-1136.56543	
1020	10.190										-873.68854	1415.82507	-1017.71979	-952.15381	1422.43274	-1212.90149										-695.89209	1009.52917	-1121.29736	-636.72217	1100.54504	-896.60858				-577.52374	853.26697	-881.92181							-911.78638	927.85333	-955.19739				-633.83948	528.71625	-1043.96570				-600.66711	108.45718	-1149.81531	
1021	10.200										-869.37726	1414.46069	-1024.36108													-692.02423	1008.27393	-1124.69165	-635.56482	1100.22961	-900.32739				-578.03210	852.07874	-883.88458							-909.17767	926.46082	-961.43848				-636.43164	527.56586	-1049.46643				-585.26648	111.24838	-1158.43945	
1022	10.210										-865.18085	1413.52991	-1030.11633													-687.68481	1005.96686	-1127.68030	-634.69269	1097.77661	-903.45251				-578.37439	850.63855	-886.45013							-907.60541	926.02148	-968.06470				-638.14484	528.08813	-1054.42847				-571.26733	114.79688	-1165.70447	
1023	10.220										-863.35938	1413.85852	-1036.00378													-684.04559	1004.96411	-1131.49854	-633.28973	1096.62390	-907.56592				-578.51703	849.22552	-888.99652							-905.21173	925.64020	-974.75824				-643.20178	529.10590	-1059.23999				-557.40417	118.32789	-1173.28052	
1024	10.230										-859.61395	1412.61084	-1041.97693													-679.97241	1005.01190	-1138.72363	-631.02130	1095.88586	-910.51410				-580.49542	846.36420	-894.30072							-903.40277	925.06006	-981.07281				-645.51093	529.17737	-1064.94165				-545.24207	121.69335	-1184.55261	
1025	10.240										-853.88446	1411.18921	-1047.31799													-675.96350	1002.13202	-1141.13403	-629.44092	1093.67932	-914.33008				-580.58307	843.84637	-897.44885							-899.98792	924.68866	-986.83405				-648.99542	527.19293	-1072.31885				-531.91797	125.06232	-1190.36182	
1026	10.250										-849.99561	1410.28845	-1053.14172													-672.01978	1001.28046	-1146.76440	-627.50452	1093.28943	-917.52484				-580.14410	841.79382	-899.75208							-896.98700	923.81439	-992.61035				-652.54315	526.44275	-1076.35742				-517.70807	130.79910	-1198.14990	
1027	10.260										-845.92725	1410.25122	-1059.54517													-667.57904	999.21936	-1152.01172	-625.88135	1090.94922	-926.74664				-577.21149	841.81873	-900.74261							-895.44788	924.05664	-997.60291				-654.77032	524.31995	-1084.96985				-506.50818	135.81352	-1204.46130	
1028	10.270										-841.00122	1409.44885	-1064.97913													-663.44318	997.35339	-1156.75073	-623.00690	1088.88135	-929.62958				-575.89697	839.51410	-905.92267							-891.40552	922.94537	-1003.33862				-655.47070	525.65778	-1088.86572				-494.84769	140.89751	-1210.18787	
1029	10.280										-836.04419	1407.88135	-1070.52209													-660.09839	996.71478	-1160.96692	-618.92163	1088.36182	-932.84515				-578.28430	836.73120	-914.35657							-886.94781	922.15985	-1009.33020				-654.11664	524.15643	-1092.22437				-483.29584	144.56761	-1218.56653	
1030	10.290										-830.16351	1406.64526	-1076.04614													-655.10144	994.51459	-1166.21313	-616.01447	1086.01880	-940.34595				-575.39648	834.66119	-917.01727							-883.63599	921.65930	-1014.69556				-651.83392	522.94781	-1098.27161				-472.11929	149.19057	-1224.38147	
1031	10.300										-825.94568	1406.10327	-1081.53577													-651.18896	993.11627	-1169.67249	-612.90100	1084.25745	-945.39093				-574.70862	832.71796	-922.11792							-878.61432	920.21594	-1021.04095				-646.42450	521.93005	-1104.73083				-462.27893	152.31369	-1230.18652	
1032	10.310										-821.54907	1406.40417	-1087.59924													-645.91510	992.60291	-1177.35510	-608.78522	1082.97363	-949.09656				-569.97003	832.15411	-923.24121							-873.92310	918.63641	-1025.61169				-641.67987	520.37299	-1109.35913				-452.35114	155.01865	-1236.24194	
1033	10.320										-815.34387	1405.38745	-1092.73218													-640.88940	991.18903	-1181.64331	-604.43982	1080.78540	-952.92694				-570.85455	828.87592	-933.37384							-869.34839	916.52069	-1032.23669				-635.22241	520.75598	-1112.48401				-443.88391	158.20177	-1241.47034	
1034	10.330										-809.38440	1404.04224	-1097.89465													-635.85321	991.09772	-1187.73877	-600.69653	1079.73840	-957.96118				-567.27856	827.10913	-937.50897							-864.56903	915.60883	-1038.04761				-629.82550	519.14746	-1117.29834				-435.22079	158.79811	-1246.87268	
1035	10.340										-804.28735	1402.61816	-1103.44043													-630.26190	989.18976	-1190.70447	-595.11560	1078.37439	-964.10327				-561.61133	826.73145	-941.21893							-859.29773	913.91089	-1044.86096				-623.24231	516.86859	-1122.18640				-427.03088	159.37947	-1250.64563	
1036	10.350										-798.32172	1401.29041	-1108.77307													-624.44684	989.37415	-1196.88611	-591.23798	1076.61914	-969.94019				-558.41388	825.53967	-948.63947							-853.28217	912.33289	-1050.89954				-614.56567	516.86975	-1124.16382				-419.25143	159.33694	-1255.43066	
1037	10.360										-791.84308	1400.38049	-1114.35352													-618.38702	989.25897	-1201.94556	-587.02740	1075.55981	-973.72266				-554.80560	823.81720	-954.87299							-847.66907	910.93927	-1057.65857				-607.10059	516.86133	-1126.81616				-412.96878	159.60512	-1259.13843	
1038	10.370										-787.93860	1400.13733	-1119.94104																-581.55981	1073.89282	-976.71222				-550.78601	821.50696	-959.47351							-842.30963	909.66089	-1063.55884				-599.67285	515.53058	-1131.97668				-405.96478	158.97168	-1262.62085	
1039	10.380										-782.91180	1398.63586	-1125.87097																-578.91058	1071.49963	-983.93719				-546.52716	820.59283	-964.88922							-837.22083	907.85638	-1070.74170				-590.28992	514.35419	-1134.49292				-399.45117	156.77426	-1266.10767	
1040	10.390										-777.38293	1397.05811	-1130.94556																-573.41797	1069.66760	-989.24036				-542.09814	818.67761	-971.32959							-829.99591	906.63983	-1076.91736				-582.25714	511.71381	-1138.85022				-393.52017	154.66475	-1270.53992	
1041	10.400										-772.40521	1395.48328	-1136.98853																-569.15613	1068.38831	-993.31244				-537.10870	818.29108	-977.87946							-824.12006	905.34967	-1084.73425				-573.50385	509.92773	-1140.42981				-387.37857	151.86546	-1272.38110	
1042	10.410										-767.24835	1393.94666	-1141.73877																-566.21222	1066.89819	-1001.37726				-534.39117	814.94635	-985.52136							-817.18365	903.52814	-1091.53052				-565.06854	508.09332	-1143.99475				-382.02390	148.01605	-1275.68054	
1043	10.420										-761.70508	1392.36304	-1146.85876																-560.16541	1065.81995	-1004.97748				-528.93164	813.69202	-989.74146							-809.91351	901.50983	-1098.54541				-555.86230	505.31857	-1146.10046				-375.89581	142.77661	-1278.45374	
1044	10.430										-755.59717	1390.09314	-1151.91492																-556.87769	1064.33679	-1009.23181				-521.65442	811.82709	-994.88019							-804.08887	899.95502	-1106.99805				-548.05127	502.28229	-1146.83325				-370.07373	138.82788	-1282.84509	
1045	10.440										-749.17676	1388.32996	-1157.08936																-551.22852	1063.34167	-1012.79327				-515.83270	812.05579	-998.69849							-797.26019	899.37299	-1115.32703				-539.66559	500.70334	-1149.54346				-365.20544	133.78725	-1285.75317	
1046	10.450										-742.78638	1388.89270	-1162.26355																-545.95154	1062.78369	-1016.29382				-509.60242	810.67200	-1003.03552							-789.29114	897.72742	-1120.82629				-531.38177	497.42191	-1154.83105				-361.05145	128.91121	-1288.15173	
